PathFileType  4	(X/Y/Z) C:\Users\antoi\Documents\MyRepositories\mobilecap\ResultsAnalysis
DataRate	CameraRate	NumFrames	NumMarkers	Units	OrigDataRate	OrigDataStartFrame	OrigNumFrames
100.0	100.0	4	55	mm	100.0	252	502
Frame#	Time	r_knee			r_shank_antsup			r_ankle			r_calc			r_5meta			r_toe			L_knee			L_shank_antsup			L_ankle			L_calc			L_5meta			L_toe			r_mknee			r_mankle			L_mknee			L_mankle			r_sh2			r_sh3			r_sh4			L_sh2			L_sh3			r_thigh1			r_thigh2			r_thigh3			r_thigh4			r_thigh5			L_thigh1			L_thigh2			L_thigh3			L_thigh4			r.ASIS			r.PSIS			L.ASIS			L.PSIS			C7			R_Shoulder			L_Shoulder			R_Sternum			L_Sternum			R_humerus			R_elbow_med			R_elbow_lat			R_forearm			R_wrist_radius			R_wrist_ulna			L_humerus			L_elbow_med			L_elbow_lat			L_forearm			L_wrist_radius			L_wrist_ulna			R_HJC			L_HJC			R_HJC_reg			L_HJC_reg			
		X1	Y1	Z1	X2	Y2	Z2	X3	Y3	Z3	X4	Y4	Z4	X5	Y5	Z5	X6	Y6	Z6	X7	Y7	Z7	X8	Y8	Z8	X9	Y9	Z9	X10	Y10	Z10	X11	Y11	Z11	X12	Y12	Z12	X13	Y13	Z13	X14	Y14	Z14	X15	Y15	Z15	X16	Y16	Z16	X17	Y17	Z17	X18	Y18	Z18	X19	Y19	Z19	X20	Y20	Z20	X21	Y21	Z21	X22	Y22	Z22	X23	Y23	Z23	X24	Y24	Z24	X25	Y25	Z25	X26	Y26	Z26	X27	Y27	Z27	X28	Y28	Z28	X29	Y29	Z29	X30	Y30	Z30	X31	Y31	Z31	X32	Y32	Z32	X33	Y33	Z33	X34	Y34	Z34	X35	Y35	Z35	X36	Y36	Z36	X37	Y37	Z37	X38	Y38	Z38	X39	Y39	Z39	X40	Y40	Z40	X41	Y41	Z41	X42	Y42	Z42	X43	Y43	Z43	X44	Y44	Z44	X45	Y45	Z45	X46	Y46	Z46	X47	Y47	Z47	X48	Y48	Z48	X49	Y49	Z49	X50	Y50	Z50	X51	Y51	Z51	X52	Y52	Z52	X53	Y53	Z53	X54	Y54	Z54	X55	Y55	Z55	

252	2.51000000	-271.23040	541.92804	-446.88637	-246.82281	466.07486	-433.48642	-289.26354	101.96159	-443.00496	-349.74433	51.90385	-483.77470	-144.86686	38.30564	-410.48806	-113.45605	61.92703	-472.79873	-265.29170	541.18904	-768.59930	-239.20660	424.77326	-779.08103	-297.25160	98.91108	-758.70129	-364.31589	52.67190	-718.13266	-144.81429	33.36138	-792.34770	-119.69263	59.57594	-727.36429	-270.45776	535.17011	-570.35435	-263.61897	114.70928	-534.03365	-269.94975	543.21605	-641.65782	-270.46143	114.89378	-666.08791	-244.82387	353.58918	-421.70978	-320.51566	466.38886	-410.84746	-325.19666	350.43832	-407.80133	-326.24348	437.11446	-797.78916	-328.12855	316.18012	-796.58078	-189.61376	860.69399	-429.79350	-183.78477	748.96090	-441.27365	-235.89194	719.38278	-411.47122	-302.99246	849.16335	-423.75280	-289.29181	732.24550	-422.69541	-178.78349	864.03355	-786.11544	-179.22398	724.72357	-782.26574	-298.13508	859.52977	-802.28691	-287.59770	720.25515	-795.74866	-163.21763	1049.35883	-477.48961	-348.86394	1107.70614	-565.30387	-153.55052	1046.01964	-741.35268	-345.30347	1109.12074	-669.52627	-359.40615	1605.49549	-624.60807	-296.10433	1568.13738	-445.55959	-296.48360	1582.23934	-782.68177	-206.04055	1552.20778	-589.58563	-203.33550	1549.33547	-643.28013	-303.65030	1294.05560	-363.78362	-336.47844	1204.69839	-440.07935	-323.18704	1207.98105	-357.35532	-252.33700	1065.28850	-339.18604	-204.82440	959.89957	-346.45554	-247.85148	955.62841	-333.91098	-278.20754	1320.51052	-868.61879	-325.08212	1231.66264	-812.37185	-295.52890	1233.22724	-873.25732	-231.71144	1074.16396	-884.80394	-192.18223	982.95059	-871.33972	-226.60264	973.47812	-888.07285	-256.06138	979.86805	-489.96491	-245.11444	977.87213	-720.06403	-242.74126	976.89019	-518.75995	-236.79148	979.25403	-692.92270	
253	2.52000000	-271.24218	541.92548	-446.92395	-246.77124	466.18471	-433.47847	-289.24820	102.04082	-442.94618	-349.75133	51.84859	-483.81179	-144.86868	38.33171	-410.48764	-113.45363	61.91254	-472.90351	-265.30536	541.05562	-768.59459	-239.22460	424.66170	-779.12890	-297.22226	98.75716	-758.77859	-364.27754	52.58783	-718.22122	-144.84735	33.25420	-792.42859	-119.71390	59.52638	-727.48775	-270.49950	535.26844	-570.32836	-263.65644	114.56499	-534.07150	-269.89095	543.22819	-641.56478	-270.45572	114.92519	-666.02454	-244.83511	353.58044	-421.70466	-320.47864	466.51556	-410.84424	-325.14643	350.34990	-407.68584	-326.23270	437.02799	-797.84430	-328.19513	316.07042	-796.70635	-189.80454	860.56250	-429.61932	-183.81274	749.10032	-441.26334	-235.85843	719.53722	-411.33364	-303.01390	849.24821	-423.76977	-289.29191	732.33162	-422.69591	-178.73290	864.13314	-786.07632	-179.23038	724.61420	-782.30281	-298.15295	859.37472	-802.32002	-287.58368	720.14706	-795.80331	-163.24750	1049.40599	-477.45151	-348.85919	1107.68113	-565.33491	-153.59023	1045.94085	-741.43294	-345.30392	1109.14653	-669.63045	-359.44225	1605.41464	-624.77661	-296.14460	1568.19096	-445.60193	-296.48386	1582.13813	-782.77722	-206.07111	1552.23692	-589.69513	-203.36603	1549.29118	-643.35029	-303.66570	1294.14103	-363.72928	-336.46804	1204.70411	-440.08328	-323.22704	1208.06766	-357.31400	-252.33381	1065.33218	-339.15213	-204.81434	959.97879	-346.43434	-247.82482	955.74516	-333.87594	-278.21238	1320.40569	-868.67237	-325.03381	1231.59716	-812.39996	-295.51420	1233.10991	-873.31622	-231.67517	1074.06596	-884.83052	-192.16405	982.85551	-871.37238	-226.51622	973.38266	-888.12675	-256.09650	979.90613	-489.97336	-245.14202	977.82417	-720.07136	-242.73939	976.75307	-518.76921	-236.79980	979.20124	-693.01009	
254	2.53000000	-271.25990	541.91469	-446.90700	-246.77480	466.21406	-433.48850	-289.23519	102.07006	-442.96048	-349.74207	51.79451	-483.75597	-144.87537	38.32925	-410.48968	-113.44995	61.90391	-472.93341	-265.31326	541.04038	-768.66954	-239.23015	424.61999	-779.14895	-297.22263	98.69941	-758.79649	-364.28956	52.55906	-718.24961	-144.86125	33.23450	-792.47495	-119.72114	59.54993	-727.60281	-270.58903	535.37810	-570.36207	-263.67060	114.50888	-534.09016	-269.86123	543.22781	-641.52733	-270.47997	114.89406	-666.07320	-244.83735	353.59906	-421.69678	-320.48227	466.65938	-410.85500	-325.20031	350.35906	-407.72315	-326.22733	436.99926	-797.86703	-328.17067	316.21729	-796.71966	-189.89241	860.50397	-429.54293	-183.87054	749.19273	-441.27107	-235.86743	719.61343	-411.26376	-303.05149	849.28052	-423.78449	-289.28177	732.37668	-422.66643	-178.63280	864.27414	-786.00569	-179.19516	724.60689	-782.37526	-298.15968	859.33010	-802.31365	-287.58158	720.11906	-795.86069	-163.26510	1049.43245	-477.37541	-348.85227	1107.69265	-565.36122	-153.62394	1045.95542	-741.50907	-345.31975	1109.16051	-669.67395	-359.52293	1605.37952	-624.84787	-296.18889	1568.21251	-445.62712	-296.50491	1582.11977	-782.86820	-206.11723	1552.31522	-589.77752	-203.40407	1549.28406	-643.35240	-303.68276	1294.21015	-363.71066	-336.46511	1204.71523	-440.08520	-323.25562	1208.09138	-357.29652	-252.33603	1065.35970	-339.14173	-204.79329	960.02379	-346.44544	-247.83797	955.83593	-333.85838	-278.20892	1320.37159	-868.68969	-325.01466	1231.60210	-812.47218	-295.49763	1233.08604	-873.40232	-231.61667	1074.06550	-884.92693	-192.12179	982.83747	-871.39614	-226.44604	973.36531	-888.15860	-256.11433	979.93144	-489.98402	-245.15415	977.83334	-720.08158	-242.75241	976.72321	-518.70273	-236.84837	979.17647	-693.04493	
255	2.54000000	-271.27316	541.90939	-446.82324	-246.83028	466.18519	-433.51428	-289.23327	102.06460	-443.03387	-349.74408	51.78520	-483.73904	-144.88319	38.35039	-410.48216	-113.45780	61.92517	-472.91222	-265.31765	541.15156	-768.77788	-239.21546	424.64989	-779.13204	-297.22914	98.75227	-758.77593	-364.37855	52.61366	-718.27042	-144.86265	33.27639	-792.46090	-119.74541	59.57414	-727.59529	-270.64287	535.45014	-570.38721	-263.65480	114.56838	-534.07894	-269.87552	543.22536	-641.57287	-270.53182	114.84882	-666.14918	-244.85869	353.67902	-421.73225	-320.38537	466.84359	-410.84170	-325.36734	350.55655	-407.93072	-326.21860	437.02476	-797.86545	-328.13854	316.39617	-796.61970	-189.79827	860.59865	-429.64540	-183.84517	749.25930	-441.35520	-235.90272	719.61196	-411.28545	-303.10025	849.28056	-423.81198	-289.28776	732.38920	-422.64035	-178.57626	864.35183	-785.96640	-179.18511	724.69121	-782.43137	-298.16115	859.38037	-802.28654	-287.58658	720.16075	-795.85715	-163.28845	1049.47631	-477.31882	-348.85866	1107.70859	-565.37209	-153.64180	1046.02809	-741.51319	-345.33314	1109.18287	-669.69002	-359.57680	1605.42467	-624.82486	-296.24557	1568.26115	-445.65010	-296.53794	1582.18257	-782.96797	-206.17340	1552.41207	-589.84182	-203.45650	1549.32566	-643.36015	-303.70433	1294.28558	-363.71285	-336.46814	1204.72965	-440.08846	-323.25055	1208.11246	-357.30801	-252.35461	1065.44495	-339.16907	-204.75313	960.09923	-346.44187	-247.86994	955.91858	-333.87583	-278.18880	1320.41159	-868.69153	-325.03453	1231.70007	-812.67536	-295.46432	1233.13937	-873.48312	-231.52955	1074.15445	-885.01504	-192.04966	982.92405	-871.39428	-226.39599	973.43011	-888.15796	-256.12597	979.96175	-489.98420	-245.14003	977.88012	-720.08069	-242.75835	976.74568	-518.65520	-236.86495	979.21012	-693.03754	
